<svg width="40" height="40" fill="none" xmlns="http://www.w3.org/2000/svg"><path d="M18.75 31.25c0 1.383-1.117 2.5-2.5 2.5a2.497 2.497 0 01-2.5-2.5c0-1.383 1.117-2.5 2.5-2.5s2.5 1.117 2.5 2.5zm8.333-2.5a2.497 2.497 0 00-2.5 2.5c0 1.383 1.117 2.5 2.5 2.5 1.384 0 2.5-1.117 2.5-2.5s-1.116-2.5-2.5-2.5zM34.55 12.8l-3.333 13.333c-.134.55-.634.95-1.217.95H13.333c-.6 0-1.116-.433-1.233-1.033L8.95 8.75H6.667a1.26 1.26 0 01-1.25-1.25c0-.683.566-1.25 1.25-1.25H10c.6 0 1.117.433 1.233 1.033l.717 3.967h21.383c.384 0 .75.183.984.483.233.3.316.7.233 1.067zm-2.817.95H12.4l1.967 10.833h14.65l2.716-10.833z" fill="#000"/></svg>