<svg width="40" height="40" viewBox="0 0 40 40" fill="none" xmlns="http://www.w3.org/2000/svg">
<path d="M18.7501 31.25C18.7501 32.6333 17.6334 33.75 16.2501 33.75C14.8667 33.75 13.7501 32.6333 13.7501 31.25C13.7501 29.8667 14.8667 28.75 16.2501 28.75C17.6334 28.75 18.7501 29.8667 18.7501 31.25ZM27.0834 28.75C25.7001 28.75 24.5834 29.8667 24.5834 31.25C24.5834 32.6333 25.7001 33.75 27.0834 33.75C28.4667 33.75 29.5834 32.6333 29.5834 31.25C29.5834 29.8667 28.4667 28.75 27.0834 28.75ZM34.5501 12.8L31.2167 26.1333C31.0834 26.6833 30.5834 27.0833 30.0001 27.0833H13.3334C12.7334 27.0833 12.2167 26.65 12.1001 26.05L8.95008 8.75H6.66675C5.98341 8.75 5.41675 8.18333 5.41675 7.5C5.41675 6.81667 5.98341 6.25 6.66675 6.25H10.0001C10.6001 6.25 11.1167 6.68333 11.2334 7.28333L11.9501 11.25H33.3334C33.7167 11.25 34.0834 11.4333 34.3167 11.7333C34.5501 12.0333 34.6334 12.4333 34.5501 12.8ZM31.7334 13.75H12.4001L14.3667 24.5833H29.0167L31.7334 13.75Z" fill="black"/>
</svg>
