<svg width="40" height="40" viewBox="0 0 40 40" fill="none" xmlns="http://www.w3.org/2000/svg">
<path d="M20 20.4167C18.7639 20.4167 17.5555 20.0501 16.5277 19.3634C15.4999 18.6766 14.6988 17.7005 14.2258 16.5584C13.7527 15.4164 13.6289 14.1597 13.8701 12.9474C14.1113 11.735 14.7065 10.6213 15.5806 9.74725C16.4547 8.87317 17.5683 8.27792 18.7807 8.03676C19.9931 7.7956 21.2497 7.91937 22.3918 8.39242C23.5338 8.86547 24.5099 9.66655 25.1967 10.6944C25.8834 11.7222 26.25 12.9305 26.25 14.1667C26.25 15.8243 25.5915 17.414 24.4194 18.5861C23.2473 19.7582 21.6576 20.4167 20 20.4167ZM20 10.4167C19.2583 10.4167 18.5333 10.6366 17.9166 11.0487C17.2999 11.4607 16.8193 12.0464 16.5355 12.7316C16.2516 13.4168 16.1774 14.1708 16.3221 14.8983C16.4668 15.6257 16.8239 16.2939 17.3484 16.8183C17.8728 17.3428 18.541 17.6999 19.2684 17.8446C19.9958 17.9893 20.7498 17.915 21.4351 17.6312C22.1203 17.3474 22.706 16.8667 23.118 16.2501C23.5301 15.6334 23.75 14.9083 23.75 14.1667C23.75 13.1721 23.3549 12.2183 22.6517 11.515C21.9484 10.8118 20.9946 10.4167 20 10.4167Z" fill="black"/>
<path d="M31.6666 32.0833C31.3364 32.079 31.021 31.9459 30.7875 31.7124C30.554 31.479 30.4209 31.1635 30.4166 30.8333C30.4166 27.5833 28.6499 25.4167 19.9999 25.4167C11.3499 25.4167 9.58325 27.5833 9.58325 30.8333C9.58325 31.1649 9.45156 31.4828 9.21714 31.7172C8.98272 31.9516 8.66477 32.0833 8.33325 32.0833C8.00173 32.0833 7.68379 31.9516 7.44937 31.7172C7.21495 31.4828 7.08325 31.1649 7.08325 30.8333C7.08325 22.9167 16.1333 22.9167 19.9999 22.9167C23.8666 22.9167 32.9166 22.9167 32.9166 30.8333C32.9123 31.1635 32.7792 31.479 32.5457 31.7124C32.3122 31.9459 31.9968 32.079 31.6666 32.0833Z" fill="black"/>
</svg>
